<svg xmlns="http://www.w3.org/2000/svg" width="412" height="900" viewBox="0 0 412 900"><style>.t{font-family:Arial;fill:#1f2724}.m{font-family:Arial;fill:#6c736f}.h{font-family:Arial;fill:#1f2724;font-weight:700}.c{fill:#fff;stroke:#e1e3df}.b{fill:#245a4a}.p{fill:#efe7fa}.i{fill:#e7f0f7}.g{fill:#e6f4ed}.y{fill:#fff3d8}.line{stroke:#e1e3df}</style><rect width="412" height="900" fill="#f7f6f1"/><rect width="412" height="150" fill="#123d32"/><text x="18" y="26" fill="white" font-family="Arial" font-weight="700" font-size="15">PlazaInterinos · Aragón</text><g font-family="Arial" font-size="11" font-weight="700" fill="#9fb6ae"><text x="18" y="66">1 · Convocatoria</text><text x="150" y="66">2 · Perfil</text><text x="268" y="66">3 · Filtrar</text><text x="18" y="105">4 · Orden general</text><text x="155" y="105">5 · Ordenar lista</text><text x="285" y="105">6 · Comprobación</text><text x="18" y="138">✓ Final</text></g><rect x="140" y="47" width="96" height="27" rx="14" fill="#365c52" opacity=".95"/><text class="h" x="18" y="190" font-size="25">Tu perfil</text><rect class="c" x="14" y="210" width="384" height="120" rx="18"/><text class="h" x="28" y="240" font-size="18">Tus especialidades</text><rect class="p" x="48" y="260" width="105" height="30" rx="15"/><text x="65" y="280" font-family="Arial" font-size="11" font-weight="700" fill="#69419a">✓ Matemáticas</text><rect class="i" x="170" y="260" width="105" height="30" rx="15"/><text x="190" y="280" font-family="Arial" font-size="11" font-weight="700" fill="#3b6d8c">✓ Informática</text><rect class="c" x="14" y="345" width="384" height="160" rx="18"/><text class="h" x="28" y="376" font-size="18">Tu vivienda habitual</text><rect x="28" y="393" width="356" height="39" rx="10" fill="white" stroke="#d7d9d4"/><text class="t" x="40" y="418" font-size="13">Calle Ruiz Tapiador 17, Zaragoza</text><rect x="28" y="444" width="166" height="38" rx="10" fill="white" stroke="#245a4a"/><text class="h" x="75" y="468" font-size="12">Comprobar</text><rect x="205" y="444" width="179" height="38" rx="10" fill="white" stroke="#245a4a"/><text class="h" x="230" y="468" font-size="12">Usar ubicación actual</text><rect class="c" x="14" y="520" width="384" height="245" rx="18"/><text class="h" x="28" y="552" font-size="18">Trayecto y jornada</text><text class="m" x="28" y="578" font-size="11">Máximo general</text><rect x="28" y="590" width="80" height="37" rx="9" fill="white" stroke="#d7d9d4"/><text class="t" x="52" y="614" font-size="14">45</text><text class="m" x="115" y="614" font-size="11">min</text><text class="h" x="28" y="656" font-size="13">Qué jornada te compensa</text><rect x="28" y="670" width="356" height="72" rx="11" fill="#fafaf8" stroke="#dedfd9"/><text class="t" x="42" y="697" font-size="12">De 0 a 45 min → jornada mínima 35 %</text><text class="m" x="42" y="721" font-size="10">Inputs numéricos; sin sliders dobles</text><rect class="b" x="14" y="820" width="384" height="50" rx="13"/><text x="132" y="851" font-family="Arial" font-weight="700" fill="white" font-size="15">Continuar a filtros →</text></svg>